<svg width="240" height="46" viewBox="0 0 240 46" fill="none" xmlns="http://www.w3.org/2000/svg">
<path d="M98.0237 18.641C97.445 17.9118 96.7706 17.3155 96.0006 16.8567C94.9532 16.2314 93.7622 15.92 92.4278 15.92C91.0934 15.92 89.826 16.2363 88.7785 16.8688C87.7311 17.5014 86.9108 18.3826 86.3178 19.5149C85.7247 20.6473 85.4282 21.9703 85.4282 23.4841C85.4282 24.9979 85.7247 26.2775 86.3178 27.4171C86.9108 28.5567 87.7311 29.4403 88.7785 30.0632C89.826 30.6885 91.0408 31 92.4278 31C93.8148 31 94.9555 30.6885 96.0006 30.0632C96.7037 29.6431 97.323 29.1096 97.8611 28.4601L97.775 30.5992H102.993L103.235 11.3713H97.9903L98.0213 18.6361L98.0237 18.641ZM97.4976 25.3577C97.0361 25.9081 96.5004 26.3355 95.8906 26.6445C95.2808 26.9536 94.6303 27.1057 93.9368 27.1057C93.2433 27.1057 92.6909 26.9511 92.1815 26.6445C91.6697 26.3379 91.2704 25.9081 90.981 25.3577C90.6917 24.8072 90.5482 24.1843 90.5482 23.4841C90.5482 22.784 90.6917 22.1345 90.981 21.5865C91.2704 21.036 91.6697 20.6038 92.1815 20.2875C92.6933 19.9713 93.2768 19.8143 93.9368 19.8143C94.6303 19.8143 95.2808 19.9737 95.8906 20.2875C96.5004 20.6038 97.0361 21.036 97.4976 21.5865C97.9592 22.1369 98.3059 22.7695 98.5355 23.4841C98.3035 24.1843 97.9592 24.8072 97.4976 25.3577ZM130.27 16.7433C129.354 16.1928 128.246 15.92 126.943 15.92C125.888 15.92 124.906 16.1856 123.999 16.7191C123.093 17.2527 122.337 18.0398 121.737 19.0779C121.67 19.1938 121.605 19.317 121.543 19.4401C121.493 19.3121 121.438 19.189 121.378 19.0659C120.9 18.0663 120.206 17.2937 119.3 16.7433C118.394 16.1928 117.289 15.92 115.986 15.92C114.914 15.92 113.929 16.1856 113.03 16.7191C112.291 17.1585 111.65 17.7694 111.107 18.5516L111.102 16.3449H106.176L106.068 30.604H111.114V23.7376C111.114 22.9892 111.241 22.3397 111.497 21.7893C111.753 21.2388 112.116 20.8163 112.585 20.5169C113.056 20.2175 113.611 20.0678 114.254 20.0678C115.161 20.0678 115.854 20.3503 116.332 20.9177C116.811 21.4826 117.05 22.2987 117.05 23.3658V30.6065H122.096V23.7401C122.096 22.9916 122.222 22.3421 122.478 21.7917C122.734 21.2412 123.098 20.8187 123.566 20.5193C124.038 20.2199 124.592 20.0702 125.236 20.0702C126.142 20.0702 126.835 20.3527 127.314 20.9201C127.792 21.4851 128.031 22.3011 128.031 23.3682V30.6089H133.077V22.6174C133.077 21.2533 132.838 20.0702 132.36 19.0707C131.881 18.0712 131.185 17.2986 130.27 16.7481V16.7433ZM134.969 16.118V30.6016H140.038V16.118L137.516 16.6177L134.969 16.118ZM139.656 10.6736C139.12 10.2245 138.398 10 137.492 10C136.585 10 135.909 10.2245 135.366 10.6736C134.82 11.1227 134.55 11.7214 134.55 12.4723C134.55 13.2232 134.823 13.8412 135.366 14.2831C135.911 14.7249 136.619 14.9446 137.492 14.9446C138.364 14.9446 139.12 14.7249 139.656 14.2831C140.192 13.8412 140.459 13.2376 140.459 12.4723C140.459 11.7069 140.192 11.1251 139.656 10.6736ZM158.244 19.0635C157.742 18.0639 157.01 17.2913 156.056 16.7409C155.1 16.1904 153.945 15.9176 152.593 15.9176C151.455 15.9176 150.417 16.1831 149.477 16.7167C148.719 17.1465 148.059 17.7452 147.493 18.5057L147.55 16.3425L142.353 16.3521V30.5992H147.399V23.7328C147.399 22.9844 147.54 22.3349 147.82 21.7844C148.1 21.234 148.499 20.8115 149.021 20.5121C149.54 20.2127 150.147 20.063 150.838 20.063C151.843 20.063 152.615 20.3455 153.151 20.9129C153.686 21.4778 153.954 22.2939 153.954 23.361V30.6016H159V22.6101C159 21.246 158.749 20.063 158.247 19.0635H158.244Z" fill="#353B4A"/>
<path d="M66.7915 27.1435V22.3697H79.8478V27.1435H66.7915ZM77.333 11.3592L85.8679 30.6083H79.543L72.6338 13.9514H74.2341L67.2995 30.6083H61L69.5094 11.3592H77.333Z" fill="#353B4A"/>
<path d="M176.875 21.5641L177.356 20.518C178.794 20.5512 179.994 20.7754 180.958 21.1905C181.922 21.589 182.641 22.1452 183.114 22.8592C183.588 23.5732 183.825 24.4117 183.825 25.3747C183.825 26.3876 183.588 27.3008 183.114 28.1144C182.658 28.9114 181.956 29.5424 181.009 30.0073C180.062 30.4556 178.887 30.6798 177.483 30.6798H163L164.446 21.0908L163 12H176.951C178.709 12 180.079 12.4068 181.06 13.2204C182.057 14.0174 182.556 15.1299 182.556 16.5579C182.556 17.3549 182.37 18.1104 181.998 18.8244C181.643 19.5383 181.043 20.1444 180.197 20.6425C179.369 21.124 178.261 21.4312 176.875 21.5641ZM168.783 29.3847L166.526 26.7446H175.733C176.393 26.7446 176.908 26.5868 177.28 26.2714C177.652 25.9393 177.838 25.4827 177.838 24.9015C177.838 24.3536 177.644 23.9053 177.255 23.5566C176.866 23.1913 176.3 23.0086 175.556 23.0086H167.895V19.173H174.719C175.243 19.173 175.682 19.0153 176.038 18.6998C176.393 18.3843 176.57 17.9692 176.57 17.4545C176.57 17.0228 176.41 16.6658 176.088 16.3835C175.784 16.0846 175.344 15.9352 174.769 15.9352H166.551L168.783 13.2951L170.077 21.0908L168.783 29.3847Z" fill="#1B1F29"/>
<path d="M198.527 16.8078L198.17 19.5729C197.507 18.6146 196.701 17.8573 195.741 17.3034C194.693 16.698 193.501 16.3965 192.165 16.3965C190.83 16.3965 189.561 16.7027 188.513 17.315C187.464 17.9274 186.643 18.7805 186.05 19.8767C185.456 20.9729 185.16 22.2538 185.16 23.7193C185.16 25.1848 185.456 26.4235 186.05 27.5268C186.643 28.63 187.464 29.4854 188.513 30.0885C189.561 30.6938 190.777 30.9953 192.165 30.9953C193.553 30.9953 194.695 30.6938 195.741 30.0885C196.701 29.5345 197.507 28.7725 198.163 27.8049L198.525 30.6097H203.773L202.883 23.6959L203.773 16.8055H198.525L198.527 16.8078ZM197.239 25.5354C196.777 26.0683 196.241 26.482 195.631 26.7812C195.021 27.0803 194.37 27.2276 193.675 27.2276C192.981 27.2276 192.428 27.078 191.919 26.7812C191.406 26.482 191.007 26.0683 190.717 25.5354C190.428 25.0025 190.284 24.3994 190.284 23.7216C190.284 23.0438 190.428 22.4174 190.717 21.8845C191.007 21.3516 191.406 20.9332 191.919 20.627C192.431 20.3208 193.015 20.1666 193.675 20.1666C194.37 20.1666 195.021 20.3208 195.631 20.627C196.241 20.9332 196.777 21.3516 197.239 21.8845C197.701 22.4174 198.048 23.0298 198.278 23.7216C198.046 24.3994 197.701 25.0025 197.239 25.5354ZM219.211 22.5506C218.27 22.1883 216.983 21.9593 215.35 21.8611L212.057 21.6204C211.265 21.5573 210.724 21.4427 210.437 21.2815C210.147 21.1202 210.003 20.9028 210.003 20.6294C210.003 20.2741 210.238 20.0006 210.71 19.8066C211.181 19.6126 211.868 19.5168 212.777 19.5168C213.553 19.5168 214.19 19.5986 214.683 19.7575C215.178 19.9188 215.566 20.1245 215.846 20.3746C216.126 20.6247 216.308 20.9028 216.392 21.209H221.516C221.401 20.2414 220.97 19.3999 220.228 18.6824C219.486 17.9648 218.495 17.4062 217.258 17.0018C216.021 16.5998 214.608 16.3965 213.024 16.3965C211.44 16.3965 210.025 16.5694 208.828 16.9154C207.632 17.2613 206.701 17.7778 206.03 18.4627C205.363 19.1475 205.028 20.0146 205.028 21.0618C205.028 21.8354 205.243 22.5249 205.671 23.1279C206.1 23.7333 206.806 24.2241 207.787 24.6028C208.768 24.9814 210.092 25.2268 211.76 25.339L214.261 25.533C215.219 25.6148 215.896 25.7317 216.291 25.8836C216.688 26.0379 216.885 26.2669 216.885 26.5731C216.885 26.9588 216.624 27.251 216.104 27.4426C215.585 27.6366 214.821 27.7324 213.814 27.7324C213.038 27.7324 212.371 27.6647 211.808 27.5268C211.248 27.3889 210.798 27.1878 210.458 26.9214C210.121 26.6549 209.893 26.3371 209.778 25.9654H204.654C204.704 26.9658 205.099 27.8423 205.841 28.5996C206.583 29.3569 207.62 29.9459 208.948 30.3643C210.276 30.7826 211.822 30.993 213.589 30.993C215.355 30.993 216.775 30.8083 217.995 30.4367C219.216 30.0651 220.156 29.5181 220.817 28.7936C221.478 28.069 221.808 27.1738 221.808 26.1103C221.808 25.2876 221.609 24.5794 221.214 23.9834C220.819 23.3874 220.149 22.9082 219.209 22.5459L219.211 22.5506ZM232.712 27.3725C231.573 27.3725 230.611 27.2112 229.828 26.8887C229.043 26.5661 228.45 26.1033 228.045 25.498C227.966 25.3788 227.897 25.2525 227.832 25.124H239C239 23.3523 238.674 21.812 238.021 20.5078C237.37 19.2013 236.444 18.1915 235.249 17.474C234.053 16.7564 232.605 16.3988 230.905 16.3988C229.206 16.3988 227.806 16.705 226.511 17.3174C225.216 17.9298 224.197 18.7805 223.455 19.8674C222.713 20.9542 222.342 22.2164 222.342 23.6515C222.342 25.0866 222.729 26.4025 223.505 27.5081C224.28 28.6113 225.341 29.4714 226.686 30.0814C228.031 30.6938 229.56 31 231.279 31C232.715 31 234.055 30.827 235.302 30.4811C236.547 30.1352 237.657 29.6397 238.631 28.9946V25.8509C237.789 26.3347 236.853 26.7087 235.822 26.9751C234.79 27.2416 233.754 27.3748 232.715 27.3748L232.712 27.3725ZM227.885 21.5105C228.182 21.0033 228.593 20.6036 229.122 20.3138C229.651 20.024 230.285 19.8791 231.027 19.8791C231.705 19.8791 232.286 20.0076 232.772 20.2647C233.258 20.5218 233.651 20.8981 233.947 21.389C234.086 21.618 234.196 21.8728 234.285 22.1509H227.6C227.672 21.9242 227.765 21.7115 227.882 21.5105H227.885Z" fill="#1B1F29"/>
<path d="M35.1004 8.08182V13.1564L29.3324 16.5836V11.1073L23.4338 7.60182L17.5334 11.1073V16.4909L11.9208 13.1564V8.08909L0 1V9.96364V15.84V37.9109L11.9225 45L17.5405 41.6636L17.5334 41.66V34.6491L23.4338 31.1418L29.3324 34.6491V41.5764L35.0863 44.9945L47 37.9109V15.84V9.96364V1.00364L35.1004 8.08182Z" fill="#4486FF"/>
</svg>
