<svg width="36" height="36" viewBox="0 0 36 36" fill="none" xmlns="http://www.w3.org/2000/svg">
<g clip-path="url(#clip0_1354_8)">
<path d="M10.5 0H6C4.4087 0 2.88258 0.632141 1.75736 1.75736C0.632141 2.88258 0 4.4087 0 6L0 10.5C0 12.0913 0.632141 13.6174 1.75736 14.7426C2.88258 15.8679 4.4087 16.5 6 16.5H10.5C12.0913 16.5 13.6174 15.8679 14.7426 14.7426C15.8679 13.6174 16.5 12.0913 16.5 10.5V6C16.5 4.4087 15.8679 2.88258 14.7426 1.75736C13.6174 0.632141 12.0913 0 10.5 0V0ZM13.5 10.5C13.5 11.2956 13.1839 12.0587 12.6213 12.6213C12.0587 13.1839 11.2956 13.5 10.5 13.5H6C5.20435 13.5 4.44129 13.1839 3.87868 12.6213C3.31607 12.0587 3 11.2956 3 10.5V6C3 5.20435 3.31607 4.44129 3.87868 3.87868C4.44129 3.31607 5.20435 3 6 3H10.5C11.2956 3 12.0587 3.31607 12.6213 3.87868C13.1839 4.44129 13.5 5.20435 13.5 6V10.5Z" fill="white"/>
<path d="M10.5 19.5H6C4.4087 19.5 2.88258 20.1321 1.75736 21.2574C0.632141 22.3826 0 23.9087 0 25.5L0 30C0 31.5913 0.632141 33.1174 1.75736 34.2427C2.88258 35.3679 4.4087 36 6 36H10.5C12.0913 36 13.6174 35.3679 14.7426 34.2427C15.8679 33.1174 16.5 31.5913 16.5 30V25.5C16.5 23.9087 15.8679 22.3826 14.7426 21.2574C13.6174 20.1321 12.0913 19.5 10.5 19.5ZM13.5 30C13.5 30.7957 13.1839 31.5587 12.6213 32.1213C12.0587 32.6839 11.2956 33 10.5 33H6C5.20435 33 4.44129 32.6839 3.87868 32.1213C3.31607 31.5587 3 30.7957 3 30V25.5C3 24.7044 3.31607 23.9413 3.87868 23.3787C4.44129 22.8161 5.20435 22.5 6 22.5H10.5C11.2956 22.5 12.0587 22.8161 12.6213 23.3787C13.1839 23.9413 13.5 24.7044 13.5 25.5V30Z" fill="white"/>
<path d="M30.0002 19.5H25.5002C23.9089 19.5 22.3828 20.1321 21.2576 21.2574C20.1324 22.3826 19.5002 23.9087 19.5002 25.5V30C19.5002 31.5913 20.1324 33.1174 21.2576 34.2427C22.3828 35.3679 23.9089 36 25.5002 36H30.0002C31.5915 36 33.1176 35.3679 34.2429 34.2427C35.3681 33.1174 36.0002 31.5913 36.0002 30V25.5C36.0002 23.9087 35.3681 22.3826 34.2429 21.2574C33.1176 20.1321 31.5915 19.5 30.0002 19.5ZM33.0002 30C33.0002 30.7957 32.6842 31.5587 32.1215 32.1213C31.5589 32.6839 30.7959 33 30.0002 33H25.5002C24.7046 33 23.9415 32.6839 23.3789 32.1213C22.8163 31.5587 22.5002 30.7957 22.5002 30V25.5C22.5002 24.7044 22.8163 23.9413 23.3789 23.3787C23.9415 22.8161 24.7046 22.5 25.5002 22.5H30.0002C30.7959 22.5 31.5589 22.8161 32.1215 23.3787C32.6842 23.9413 33.0002 24.7044 33.0002 25.5V30Z" fill="white"/>
<path d="M21.0002 10.5H25.5002V15C25.5002 15.3978 25.6583 15.7794 25.9396 16.0607C26.2209 16.342 26.6024 16.5 27.0002 16.5C27.3981 16.5 27.7796 16.342 28.0609 16.0607C28.3422 15.7794 28.5002 15.3978 28.5002 15V10.5H33.0002C33.3981 10.5 33.7796 10.342 34.0609 10.0607C34.3422 9.77936 34.5002 9.39783 34.5002 9C34.5002 8.60218 34.3422 8.22065 34.0609 7.93934C33.7796 7.65804 33.3981 7.5 33.0002 7.5H28.5002V3C28.5002 2.60218 28.3422 2.22064 28.0609 1.93934C27.7796 1.65804 27.3981 1.5 27.0002 1.5C26.6024 1.5 26.2209 1.65804 25.9396 1.93934C25.6583 2.22064 25.5002 2.60218 25.5002 3V7.5H21.0002C20.6024 7.5 20.2209 7.65804 19.9396 7.93934C19.6583 8.22065 19.5002 8.60218 19.5002 9C19.5002 9.39783 19.6583 9.77936 19.9396 10.0607C20.2209 10.342 20.6024 10.5 21.0002 10.5Z" fill="white"/>
</g>
<defs>
<clipPath id="clip0_1354_8">
<rect width="36" height="36" fill="currentColor"/>
</clipPath>
</defs>
</svg>
