<svg width="20" height="20" viewBox="0 0 20 20" fill="none" xmlns="http://www.w3.org/2000/svg">
<g clip-path="url(#clip0_1388_277)">
<path d="M15.8843 7.79499C15.7682 7.67883 15.6304 7.58668 15.4786 7.52382C15.3269 7.46095 15.1643 7.42859 15.0001 7.42859C14.8359 7.42859 14.6733 7.46095 14.5216 7.52382C14.3699 7.58668 14.232 7.67883 14.1159 7.79499L10.2943 11.6158C10.2161 11.6939 10.1102 11.7378 9.99969 11.7378C9.8892 11.7378 9.78324 11.6939 9.70511 11.6158L5.88427 7.79499C5.64989 7.56049 5.33195 7.42871 5.0004 7.42863C4.66885 7.42855 4.35085 7.56019 4.11636 7.79457C3.88186 8.02896 3.75008 8.3469 3.75 8.67844C3.74992 9.00999 3.88155 9.32799 4.11594 9.56249L7.9376 13.3842C8.20845 13.655 8.52999 13.8699 8.88388 14.0165C9.23776 14.1631 9.61706 14.2385 10.0001 14.2385C10.3832 14.2385 10.7624 14.1631 11.1163 14.0165C11.4702 13.8699 11.7918 13.655 12.0626 13.3842L15.8843 9.56249C16.1186 9.32808 16.2503 9.01019 16.2503 8.67874C16.2503 8.34728 16.1186 8.0294 15.8843 7.79499Z" fill="black"/>
</g>
<defs>
<clipPath id="clip0_1388_277">
<rect width="20" height="20" fill="white"/>
</clipPath>
</defs>
</svg>
