<svg width="24" height="24" viewBox="0 0 24 24" fill="none" xmlns="http://www.w3.org/2000/svg">
<g clip-path="url(#clip0_1354_84)">
<g clip-path="url(#clip1_1354_84)">
<path d="M22.8241 1.17594C22.0598 0.445589 21.0433 0.0380249 19.9861 0.0380249C18.929 0.0380249 17.9125 0.445589 17.1481 1.17594L1.61114 16.7129C1.09905 17.2222 0.693002 17.828 0.416481 18.4951C0.139961 19.1623 -0.00154851 19.8777 0.000136951 20.5999V22.4999C0.000136951 22.8978 0.158172 23.2793 0.439477 23.5606C0.720781 23.8419 1.10231 23.9999 1.50014 23.9999H3.40014C4.12269 24.0019 4.83846 23.8605 5.506 23.584C6.17355 23.3074 6.77962 22.9013 7.28914 22.3889L22.8241 6.85194C23.5757 6.09867 23.9978 5.07803 23.9978 4.01394C23.9978 2.94984 23.5757 1.9292 22.8241 1.17594ZM5.16614 20.2679C4.69652 20.7345 4.06212 20.9975 3.40014 20.9999H3.00014V20.5999C3.00219 19.9373 3.26517 19.3021 3.73214 18.8319L15.3001 7.26694L16.7331 8.69994L5.16614 20.2679ZM20.7001 4.73094L18.8541 6.57994L17.4201 5.14594L19.2701 3.29994C19.4631 3.11552 19.7197 3.0126 19.9866 3.0126C20.2535 3.0126 20.5102 3.11552 20.7031 3.29994C20.8917 3.4905 20.9973 3.74794 20.9967 4.01606C20.9962 4.28417 20.8895 4.54117 20.7001 4.73094Z" fill="#58A5FF"/>
</g>
</g>
<defs>
<clipPath id="clip0_1354_84">
<rect width="24" height="24" fill="white"/>
</clipPath>
<clipPath id="clip1_1354_84">
<rect width="24" height="24" fill="white"/>
</clipPath>
</defs>
</svg>
