<svg width="21" height="20" viewBox="0 0 21 20" fill="none" xmlns="http://www.w3.org/2000/svg">
<path d="M6.67187 1.5625C6.02955 1.5625 5.41354 1.82178 4.95935 2.28329C4.50516 2.74481 4.25 3.37076 4.25 4.02344V15.9766C4.25 16.6292 4.50516 17.2552 4.95935 17.7167C5.41354 18.1782 6.02955 18.4375 6.67187 18.4375C7.3142 18.4375 7.93021 18.1782 8.3844 17.7167C8.83859 17.2552 9.09375 16.6292 9.09375 15.9766V4.02344C9.09375 3.37076 8.83859 2.74481 8.3844 2.28329C7.93021 1.82178 7.3142 1.5625 6.67187 1.5625V1.5625Z" fill="white"/>
<path d="M14.4063 1.5625C13.7432 1.5625 13.1073 1.82178 12.6385 2.28329C12.1696 2.74481 11.9062 3.37076 11.9062 4.02344V15.9766C11.9063 16.6292 12.1696 17.2552 12.6385 17.7167C13.1073 18.1782 13.7432 18.4375 14.4063 18.4375C15.0693 18.4375 15.7052 18.1782 16.174 17.7167C16.6429 17.2552 16.9063 16.6292 16.9063 15.9766V4.02344C16.9063 3.37076 16.6429 2.74481 16.174 2.28329C15.7052 1.82178 15.0693 1.5625 14.4063 1.5625V1.5625Z" fill="white"/>
</svg>
