<svg width="20" height="20" viewBox="0 0 21 21" fill="none" xmlns="http://www.w3.org/2000/svg">
<g clip-path="url(#clip0_1401_629)">
<g clip-path="url(#clip1_1401_629)">
<path d="M15.8333 0H4.16667C3.062 0.00132321 2.00296 0.440735 1.22185 1.22185C0.440735 2.00296 0.00132321 3.062 0 4.16667L0 15.8333C0.00132321 16.938 0.440735 17.997 1.22185 18.7782C2.00296 19.5593 3.062 19.9987 4.16667 20H15.8333C16.938 19.9987 17.997 19.5593 18.7782 18.7782C19.5593 17.997 19.9987 16.938 20 15.8333V4.16667C19.9987 3.062 19.5593 2.00296 18.7782 1.22185C17.997 0.440735 16.938 0.00132321 15.8333 0V0ZM4.16667 1.66667H15.8333C16.4964 1.66667 17.1323 1.93006 17.6011 2.3989C18.0699 2.86774 18.3333 3.50363 18.3333 4.16667V15.8333C18.3319 16.2046 18.2464 16.5707 18.0833 16.9042L10.4475 9.26833C10.0606 8.88131 9.6012 8.57429 9.0956 8.36483C8.59001 8.15537 8.0481 8.04756 7.50083 8.04756C6.95357 8.04756 6.41166 8.15537 5.90607 8.36483C5.40047 8.57429 4.94109 8.88131 4.55417 9.26833L1.66667 12.155V4.16667C1.66667 3.50363 1.93006 2.86774 2.3989 2.3989C2.86774 1.93006 3.50363 1.66667 4.16667 1.66667V1.66667ZM4.16667 18.3333C3.50363 18.3333 2.86774 18.0699 2.3989 17.6011C1.93006 17.1323 1.66667 16.4964 1.66667 15.8333V14.5117L5.73167 10.4467C5.96383 10.2144 6.2395 10.0301 6.54292 9.90432C6.84634 9.77858 7.17156 9.71387 7.5 9.71387C7.82844 9.71387 8.15366 9.77858 8.45708 9.90432C8.7605 10.0301 9.03617 10.2144 9.26833 10.4467L16.9042 18.0833C16.5707 18.2464 16.2046 18.3319 15.8333 18.3333H4.16667Z" fill="currentColor"/>
<path d="M13.3337 8.74972C13.9105 8.74972 14.4744 8.57866 14.9541 8.25817C15.4337 7.93768 15.8076 7.48216 16.0283 6.94921C16.2491 6.41626 16.3068 5.82981 16.1943 5.26404C16.0817 4.69826 15.804 4.17856 15.3961 3.77066C14.9882 3.36275 14.4684 3.08497 13.9027 2.97243C13.3369 2.85989 12.7505 2.91765 12.2175 3.1384C11.6845 3.35916 11.229 3.73299 10.9085 4.21264C10.5881 4.69228 10.417 5.25619 10.417 5.83305C10.417 6.6066 10.7243 7.34846 11.2713 7.89544C11.8182 8.44243 12.5601 8.74972 13.3337 8.74972V8.74972ZM13.3337 4.58305C13.5809 4.58305 13.8226 4.65636 14.0281 4.79371C14.2337 4.93106 14.3939 5.12629 14.4885 5.3547C14.5831 5.5831 14.6079 5.83444 14.5596 6.07691C14.5114 6.31939 14.3924 6.54212 14.2175 6.71693C14.0427 6.89175 13.82 7.0108 13.5775 7.05903C13.335 7.10726 13.0837 7.08251 12.8553 6.9879C12.6269 6.89329 12.4317 6.73307 12.2943 6.52751C12.157 6.32195 12.0837 6.08028 12.0837 5.83305C12.0837 5.50153 12.2154 5.18359 12.4498 4.94917C12.6842 4.71475 13.0021 4.58305 13.3337 4.58305V4.58305Z" fill="currentColor"/>
</g>
</g>
<defs>
<clipPath id="clip0_1401_629">
<rect width="20" height="20" fill="white"/>
</clipPath>
<clipPath id="clip1_1401_629">
<rect width="20" height="20" fill="white"/>
</clipPath>
</defs>
</svg>
