<svg width="21" height="20" viewBox="0 0 21 20" fill="none" xmlns="http://www.w3.org/2000/svg">
<path d="M16.3319 7.31874L9.99952 2.67287C9.50492 2.31051 8.9197 2.09225 8.30871 2.04229C7.69772 1.99233 7.08484 2.11262 6.538 2.38983C5.99116 2.66704 5.53172 3.09034 5.21061 3.61281C4.8895 4.13528 4.71926 4.73651 4.71875 5.34986V14.6463C4.7178 15.2602 4.88715 15.8624 5.20796 16.3857C5.52876 16.9091 5.98844 17.3331 6.53582 17.6106C7.08319 17.8881 7.69679 18.0081 8.30832 17.9574C8.91984 17.9067 9.5053 17.6871 9.99952 17.3232L16.3319 12.6774C16.7521 12.3689 17.0938 11.9657 17.3293 11.5005C17.5648 11.0353 17.6875 10.5212 17.6875 9.99972C17.6875 9.47826 17.5648 8.96413 17.3293 8.49894C17.0938 8.03375 16.7521 7.63058 16.3319 7.32206V7.31874Z" fill="#202A46"/>
</svg>
