<svg width="16" height="16" viewBox="0 0 16 16" fill="none" xmlns="http://www.w3.org/2000/svg">
<g clip-path="url(#clip0_1354_75)">
<path d="M2.05745 7.12272C2.54022 3.84204 5.59108 1.57389 8.87176 2.05665C9.99106 2.22135 11.041 2.69895 11.9008 3.43442L11.1268 4.20834C10.8674 4.4678 10.8675 4.88844 11.127 5.14784C11.2515 5.27234 11.4204 5.34231 11.5965 5.34234H14.6431C15.01 5.34234 15.3074 5.04492 15.3074 4.67803V1.63143C15.3073 1.26454 15.0099 0.967182 14.643 0.967245C14.4669 0.967276 14.298 1.03725 14.1734 1.16175L13.3098 2.02536C10.0164 -0.910382 4.96666 -0.620467 2.03092 2.67292C0.990873 3.83964 0.315941 5.28586 0.0897388 6.8324C0.000553392 7.38068 0.372709 7.89746 0.920963 7.98664C0.970351 7.99468 1.02024 7.999 1.07028 7.99963C1.57189 7.99421 1.99293 7.62018 2.05745 7.12272Z" fill="#7F8EB6"/>
<path d="M14.9292 7.99945C14.4276 8.00487 14.0066 8.37889 13.9421 8.87636C13.4593 12.157 10.4084 14.4252 7.12775 13.9424C6.00845 13.7777 4.95846 13.3001 4.09875 12.5647L4.87267 11.7908C5.13207 11.5313 5.13201 11.1107 4.87252 10.8513C4.74799 10.7268 4.57908 10.6568 4.40299 10.6568H1.35645C0.989558 10.6568 0.692139 10.9542 0.692139 11.3211V14.3677C0.692232 14.7346 0.989714 15.0319 1.35661 15.0318C1.5327 15.0318 1.70161 14.9618 1.82614 14.8373L2.68975 13.9737C5.98235 16.9098 11.0317 16.6208 13.9678 13.3281C15.0084 12.1612 15.6836 10.7145 15.9098 9.16736C15.9993 8.61914 15.6275 8.10212 15.0793 8.01256C15.0297 8.00443 14.9795 8.00004 14.9292 7.99945Z" fill="#7F8EB6"/>
</g>
<defs>
<clipPath id="clip0_1354_75">
<rect width="16" height="16" fill="white"/>
</clipPath>
</defs>
</svg>
